<svg width="16" height="16" viewBox="0 0 16 16" fill="none" xmlns="http://www.w3.org/2000/svg">
<mask id="mask0_5_1168" style="mask-type:alpha" maskUnits="userSpaceOnUse" x="1" y="1" width="14" height="14">
<path fill-rule="evenodd" clip-rule="evenodd" d="M1.3335 1.33347H14.6399V14.6333H1.3335V1.33347Z" fill="white"/>
</mask>
<g mask="url(#mask0_5_1168)">
<path fill-rule="evenodd" clip-rule="evenodd" d="M5.10016 2.33334C3.4195 2.33334 2.3335 3.48468 2.3335 5.26601V10.7007C2.3335 12.4827 3.4195 13.6333 5.10016 13.6333H10.8668C12.5515 13.6333 13.6402 12.4827 13.6402 10.7007V5.26601C13.6402 3.48468 12.5515 2.33334 10.8668 2.33334H5.10016ZM10.8668 14.6333H5.10016C2.84683 14.6333 1.3335 13.0527 1.3335 10.7007V5.26601C1.3335 2.91401 2.84683 1.33334 5.10016 1.33334H10.8668C13.1235 1.33334 14.6402 2.91401 14.6402 5.26601V10.7007C14.6402 13.0527 13.1235 14.6333 10.8668 14.6333Z" fill="white"/>
</g>
<path fill-rule="evenodd" clip-rule="evenodd" d="M3.52076 11.4536C3.39676 11.4536 3.27342 11.4083 3.17676 11.3163C2.97609 11.1269 2.96809 10.8096 3.15809 10.6103L4.17676 9.53495C4.71609 8.96228 5.62609 8.93428 6.20142 9.47428L6.84009 10.1223C7.01809 10.3023 7.30742 10.3056 7.48609 10.1296C7.55342 10.0503 9.00542 8.28695 9.00542 8.28695C9.28142 7.95228 9.67076 7.74561 10.1034 7.70295C10.5368 7.66495 10.9574 7.79095 11.2928 8.06628C11.3214 8.08961 11.3474 8.11228 12.8114 9.61561C13.0041 9.81295 13.0008 10.1296 12.8028 10.3223C12.6054 10.5163 12.2881 10.5103 12.0954 10.3129C12.0954 10.3129 10.7294 8.91095 10.6321 8.81628C10.5288 8.73161 10.3628 8.68228 10.1994 8.69828C10.0334 8.71495 9.88409 8.79428 9.77809 8.92295C8.22876 10.8023 8.21009 10.8203 8.18476 10.8449C7.61276 11.4063 6.68942 11.3969 6.12742 10.8236C6.12742 10.8236 5.50742 10.1943 5.49676 10.1816C5.34276 10.0389 5.06809 10.0483 4.90342 10.2223L3.88342 11.2976C3.78476 11.4016 3.65276 11.4536 3.52076 11.4536Z" fill="white"/>
<path fill-rule="evenodd" clip-rule="evenodd" d="M5.70504 5.41925C5.33638 5.41925 5.03638 5.71925 5.03638 6.08858C5.03638 6.45792 5.33638 6.75858 5.70571 6.75858C6.07504 6.75858 6.37571 6.45792 6.37571 6.08858C6.37571 5.71992 6.07504 5.41992 5.70504 5.41925ZM5.70571 7.75858C4.78504 7.75858 4.03638 7.00925 4.03638 6.08858C4.03638 5.16792 4.78504 4.41925 5.70571 4.41925C6.62704 4.41992 7.37571 5.16925 7.37571 6.08858C7.37571 7.00925 6.62638 7.75858 5.70571 7.75858Z" fill="white"/>
</svg>
