<svg width="18" height="17" viewBox="0 0 18 17" fill="none" xmlns="http://www.w3.org/2000/svg">
<path d="M3 16L14 1" stroke="black" stroke-width="2" stroke-linecap="round"/>
<path fill-rule="evenodd" clip-rule="evenodd" d="M3.114 2.5C2.224 2.5 1.5 3.216 1.5 4.096C1.5 4.977 2.224 5.692 3.114 5.692C4.003 5.692 4.726 4.977 4.726 4.096C4.726 3.216 4.003 2.5 3.114 2.5M3.114 7.192C1.397 7.192 0 5.803 0 4.096C0 2.389 1.397 1 3.114 1C4.83 1 6.226 2.389 6.226 4.096C6.226 5.803 4.83 7.192 3.114 7.192" fill="black"/>
<path fill-rule="evenodd" clip-rule="evenodd" d="M14.114 11.5C13.224 11.5 12.5 12.216 12.5 13.096C12.5 13.977 13.224 14.692 14.114 14.692C15.003 14.692 15.726 13.977 15.726 13.096C15.726 12.216 15.003 11.5 14.114 11.5M14.114 16.192C12.397 16.192 11 14.803 11 13.096C11 11.389 12.397 10 14.114 10C15.83 10 17.226 11.389 17.226 13.096C17.226 14.803 15.83 16.192 14.114 16.192" fill="black"/>
</svg>
